<svg xmlns="http://www.w3.org/2000/svg" xmlns:xlink="http://www.w3.org/1999/xlink" width="1366" height="600" viewBox="0 0 1366 600"><defs><clipPath id="a"><rect width="1366" height="600" transform="translate(0 97)" fill="#ff453b"/></clipPath></defs><g transform="translate(0 -97)" clip-path="url(#a)"><rect width="1366" height="600" transform="translate(0 97)" fill="#ff453b"/><g transform="translate(780.451 127.122)" opacity="0.4"><g transform="translate(-907 -140)"><g transform="translate(897 138)"><path d="M472,102.642l144.311-5.321L605.2,160.388,462.3,163.94Z" transform="translate(-13.795 85.974) rotate(-9)" fill="#f6d260" fill-rule="evenodd"/><path d="M326.66,22.783l233.4-3.29-11.12,63.066L316.952,84.08Z" transform="translate(-2.703 69.235) rotate(-9)" fill="#e6ebf1" fill-rule="evenodd"/><path d="M365.43,207.948l203.06,1.039-11.12,63.066L355.5,270.641Z" transform="translate(-31.856 75.227) rotate(-9)" fill="#a01f1f" fill-rule="evenodd"/><path d="M84.234,157.176l181.2.07-11.12,63.066-179.687-.07Z" transform="translate(-27.433 28.922) rotate(-9)" fill="#e6ebf1" fill-rule="evenodd"/><path d="M13.12,334.9l557.97-.255-11.12,63.066L2,397.968Z" transform="translate(-53.775 49.335) rotate(-9)" fill="#e6ebf1" fill-rule="evenodd"/><path d="M435.894,398.683l131.857.993-11.12,63.066-132.043.06Z" transform="translate(-61.274 82.921) rotate(-9)" fill="#ff4646" fill-rule="evenodd"/><path d="M338.874,500.01l230.365,4.454-11.12,63.066-230.551-3.4Z" transform="translate(-77.979 76.717) rotate(-9)" fill="#f6d260" fill-rule="evenodd"/></g></g></g></g></svg>