<svg xmlns="http://www.w3.org/2000/svg" xmlns:xlink="http://www.w3.org/1999/xlink" width="160" height="160" viewBox="0 0 160 160">
  <defs>
    <clipPath id="clip-path">
      <path id="Rectangle" d="M80,0l80,80L80,160,0,80Z" fill="#e7edf3"/>
    </clipPath>
  </defs>
  <g id="pay_as_you_go" transform="translate(-258 -5073)">
    <g id="Edits" transform="translate(277.306 5102.291)">
      <g id="Rectangle-11" transform="translate(-19.306 -29.291)">
        <g id="Mask_Group_1" data-name="Mask Group 1" clip-path="url(#clip-path)">
          <path id="Rectangle-2" data-name="Rectangle" d="M80,0l80,80L80,160,0,80Z" fill="#e7edf3"/>
          <path id="Combined-Shape" d="M42.327,108.791l9.816,9.816H29.923l-9.283-9.816Z" transform="translate(0 0)" fill="#ff453b" fill-rule="evenodd" opacity="0.25"/>
          <path id="Combined-Shape-2" data-name="Combined-Shape" d="M56.327,25.791l9.816,9.816H43.923L34.64,25.791Z" transform="translate(0 0)" fill="#ff453b" fill-rule="evenodd" opacity="0.25"/>
          <path id="Combined-Shape-3" data-name="Combined-Shape" d="M126.327,38.791l9.816,9.816H113.923l-9.283-9.816Z" transform="translate(0 0)" fill="#ff453b" fill-rule="evenodd" opacity="0.25"/>
          <path id="Combined-Shape-4" data-name="Combined-Shape" d="M119.327,119.791l9.816,9.816H106.923l-9.283-9.816Z" transform="translate(0 0)" fill="#ff453b" fill-rule="evenodd" opacity="0.25"/>
        </g>
      </g>
    </g>
    <g id="Edits-2" data-name="Edits" transform="translate(272.306 5109.791)">
      <g id="Shipper---May-23---Desktop-Select" transform="translate(-281 -6127)">
        <g id="Group-13" transform="translate(216.5 5970)">
          <g id="Group-41">
            <g id="Group-12" transform="translate(0 126)">
              <g id="Group-39" transform="translate(49.5)">
                <g id="Group-87" transform="translate(0 0.884)">
                  <g id="Group-53" transform="translate(0.694 0.325)">
                    <g id="Rectangle-3">
                      <g id="Group-95" transform="translate(36 39)">
                        <g id="Group-93" transform="translate(0 12)">
                          <path id="Rectangle-3-2" data-name="Rectangle" d="M58.1,30.345H87.662L86.228,48.27a8,8,0,0,1-7.975,7.362H46.19l1.977-16.479A10,10,0,0,1,58.1,30.345Z" fill="#ff453b" fill-rule="evenodd"/>
                          <path id="Rectangle-4" data-name="Rectangle" d="M47.54,0H66.656a8,8,0,0,1,7.923,9.11q-3.856,27.525-4.667,35.564Q68.806,55.632,78.9,55.632H40.46Z" fill="#d2241a" fill-rule="evenodd"/>
                          <path id="Rectangle-5" data-name="Rectangle" d="M30.049,0h35.7q-5.726.415-7.089,9.023-1.7,10.76-4.217,37.543a10,10,0,0,1-9.956,9.066H14.161L20.129,8.737A10,10,0,0,1,30.049,0Z" fill="#ff453b" fill-rule="evenodd"/>
                          <path id="Rectangle-6" data-name="Rectangle" d="M0,42.483H37.425q-.754,12.1,8.092,13.149H10a10,10,0,0,1-10-10Z" fill="#d2241a" fill-rule="evenodd"/>
                          <g id="Group-97" transform="translate(25.921 14)">
                            <g id="Group-100" transform="translate(2.016 0.854)">
                              <path id="Path-14" d="M10.106,2.646h8.962" fill="none" stroke="#ffc945" stroke-linecap="round" stroke-linejoin="round" stroke-width="1.5" fill-rule="evenodd"/>
                              <path id="Path-16" d="M0,2.241,1.685,3.926,4.953.658" fill="none" stroke="#ffc945" stroke-linecap="round" stroke-linejoin="round" stroke-width="1.5" fill-rule="evenodd"/>
                            </g>
                            <g id="Group-100-2" data-name="Group-100" transform="translate(1.016 9.854)">
                              <path id="Path-14-2" data-name="Path-14" d="M10.106,2.646h8.962" fill="none" stroke="#f6f9fb" stroke-linecap="round" stroke-linejoin="round" stroke-width="1.5" fill-rule="evenodd"/>
                              <path id="Path-16-2" data-name="Path-16" d="M0,2.241,1.685,3.926,5.114.5" fill="none" stroke="#f6f9fb" stroke-linecap="round" stroke-linejoin="round" stroke-width="1.5" fill-rule="evenodd"/>
                            </g>
                            <g id="Group-100-3" data-name="Group-100" transform="translate(0.016 18.854)">
                              <path id="Path-14-3" data-name="Path-14" d="M10.106,2.646h8.962" fill="none" stroke="#f6f9fb" stroke-linecap="round" stroke-linejoin="round" stroke-width="1.5" fill-rule="evenodd"/>
                              <path id="Path-16-3" data-name="Path-16" d="M0,2.241,1.685,3.926,4.91.7" fill="none" stroke="#f6f9fb" stroke-linecap="round" stroke-linejoin="round" stroke-width="1.5" fill-rule="evenodd"/>
                            </g>
                          </g>
                        </g>
                        <g id="Group-94" transform="translate(42)">
                          <g id="Group-96">
                            <circle id="Oval" cx="15.497" cy="15.497" r="15.497" transform="translate(0 7)" fill="#280003" opacity="0.2"/>
                            <circle id="Oval-2" data-name="Oval" cx="15.497" cy="15.497" r="15.497" transform="translate(3 0)" fill="#ffb933"/>
                            <path id="_" data-name="$" d="M22.235,17.646a2.558,2.558,0,0,1-.777,1.89,3.64,3.64,0,0,1-2.093.966v.882a.724.724,0,0,1-.2.525.762.762,0,0,1-1.036,0,.724.724,0,0,1-.2-.525V20.53a6.33,6.33,0,0,1-1.554-.336,4.441,4.441,0,0,1-1.3-.7.705.705,0,0,1-.252-.28.911.911,0,0,1-.07-.378.818.818,0,0,1,.175-.518.5.5,0,0,1,.4-.224.674.674,0,0,1,.259.049,2.919,2.919,0,0,1,.315.161,5.177,5.177,0,0,0,1.267.616,4.336,4.336,0,0,0,1.309.2,2.471,2.471,0,0,0,1.449-.364,1.21,1.21,0,0,0,.511-1.05.844.844,0,0,0-.28-.658,2.038,2.038,0,0,0-.7-.4q-.42-.147-1.176-.343a12.745,12.745,0,0,1-1.708-.539,2.962,2.962,0,0,1-1.134-.833,2.258,2.258,0,0,1-.476-1.512,2.609,2.609,0,0,1,.812-1.932,3.724,3.724,0,0,1,2.128-.994V9.61a.724.724,0,0,1,.2-.525.762.762,0,0,1,1.036,0,.724.724,0,0,1,.2.525v.868A4.694,4.694,0,0,1,21.773,11.5a.785.785,0,0,1,.336.658.818.818,0,0,1-.175.518.513.513,0,0,1-.413.224.731.731,0,0,1-.245-.042,1.649,1.649,0,0,1-.315-.168,5.293,5.293,0,0,0-1.085-.609,3.274,3.274,0,0,0-1.211-.2,2.271,2.271,0,0,0-1.386.385,1.245,1.245,0,0,0-.518,1.057,1,1,0,0,0,.294.749,1.952,1.952,0,0,0,.742.441q.448.154,1.218.35a12.007,12.007,0,0,1,1.666.518,2.837,2.837,0,0,1,1.1.805A2.2,2.2,0,0,1,22.235,17.646Z" fill="#f6f9fb"/>
                          </g>
                        </g>
                      </g>
                    </g>
                  </g>
                </g>
              </g>
            </g>
          </g>
        </g>
      </g>
    </g>
  </g>
</svg>
