<svg xmlns="http://www.w3.org/2000/svg" width="81.265" height="68.52" viewBox="0 0 81.265 68.52">
  <g id="Edits" transform="translate(-25.027 -6.786)">
    <g id="Shipper---May-23---Desktop-Select" transform="translate(-658 -6132)">
      <g id="Group-13" transform="translate(216.5 5970)">
        <g id="Group-41">
          <g id="Group-12-Copy" transform="translate(373.333 126)">
            <g id="Group-39" transform="translate(49.5)">
              <g id="Group-87" transform="translate(0 0.884)">
                <g id="Group-53" transform="translate(0.694 0.325)">
                  <g id="Rectangle-3">
                    <g id="Group-98" transform="translate(43 42.833)">
                      <g id="Group-99">
                        <g id="Rectangle-4" transform="translate(0 12.876)">
                          <path id="Rectangle" d="M3,0H66.147a3,3,0,0,1,3,3V51.388a3,3,0,0,1-3,3H3a3,3,0,0,1-3-3V3A3,3,0,0,1,3,0Z" fill="#ff453b"/>
                          <g id="Group-105">
                            <g id="Path-14" transform="translate(10.413 10.611)">
                              <path id="Path_166" data-name="Path 166" d="M0,.488H10.7" fill="none" stroke="#f6f9fb" stroke-linecap="round" stroke-linejoin="round" stroke-width="1.5" fill-rule="evenodd"/>
                              <path id="Path_167" data-name="Path 167" d="M0,7.321H14.605" fill="none" stroke="#f6f9fb" stroke-linecap="round" stroke-linejoin="round" stroke-width="1.5" fill-rule="evenodd"/>
                            </g>
                          </g>
                          <path id="Rectangle-2" data-name="Rectangle" d="M0,24.4H69.147V51.388a3,3,0,0,1-3,3H3a3,3,0,0,1-3-3Z" fill="#d2241a" fill-rule="evenodd"/>
                          <g id="Group-106">
                            <g id="Group_201" data-name="Group 201" transform="translate(10.413 33.19)">
                              <circle id="Oval" cx="5.857" cy="5.857" r="5.857" opacity="0.3" fill="none" transform="translate(0 0)" stroke-linecap="round" stroke-linejoin="round" stroke-width="1.8" stroke="#f6f9fb"/>
                              <path id="Path" d="M0,5.857a5.857,5.857,0,0,0,5.857,5.857h0A5.857,5.857,0,0,0,5.857,0" fill="none" stroke="#f6f9fb" stroke-linecap="round" stroke-linejoin="round" stroke-width="1.8" fill-rule="evenodd"/>
                              <g id="Group-105-2" data-name="Group-105" transform="translate(19.524 1.952)">
                                <path id="Path-14-2" data-name="Path-14" d="M0,.488H15.582" fill="none" stroke="#f6f9fb" stroke-linecap="round" stroke-linejoin="round" stroke-width="1.5" fill-rule="evenodd"/>
                                <path id="Path-14-3" data-name="Path-14" d="M0,7.321H19.486" fill="none" stroke="#f6f9fb" stroke-linecap="round" stroke-linejoin="round" stroke-width="1.5" fill-rule="evenodd"/>
                              </g>
                            </g>
                          </g>
                          <path id="Rectangle-3-2" data-name="Rectangle" d="M35.964-11.108H69.477a3,3,0,0,1,3,3V39.449a3,3,0,0,1-3,3H35.964a3,3,0,0,1-3-3V-8.108A3,3,0,0,1,35.964-11.108Z" transform="translate(-1.92 9.393) rotate(-10)" fill="#280003" fill-rule="evenodd" opacity="0.15"/>
                        </g>
                        <g id="Group-104" transform="translate(34.724 7.237) rotate(-10)">
                          <path id="Rectangle-4-2" data-name="Rectangle" d="M3,0H36.512a3,3,0,0,1,3,3V40.929a3,3,0,0,1-3,3H3a3,3,0,0,1-3-3V3A3,3,0,0,1,3,0Z" fill="#ffb933" fill-rule="evenodd"/>
                          <g id="Group-103" transform="translate(4.578 6.321)">
                            <g id="Group-102" transform="translate(6.393 23.452)">
                              <path id="Path-14-4" data-name="Path-14" d="M0,.488H17.571" fill="none" stroke="#f6f9fb" stroke-linecap="round" stroke-linejoin="round" stroke-width="1.5" fill-rule="evenodd"/>
                              <path id="Path-14-5" data-name="Path-14" d="M2.44,6.345h12.69" fill="none" stroke="#f6f9fb" stroke-linecap="round" stroke-linejoin="round" stroke-width="1.5" fill-rule="evenodd"/>
                            </g>
                            <g id="Group-101" transform="translate(0.914)">
                              <text id="_40" data-name="40" transform="translate(1.045 14.554)" fill="#f6f9fb" font-size="14" font-family="Montserrat-ExtraBold, Montserrat" font-weight="800" letter-spacing="0.036em"><tspan x="0" y="0">40</tspan></text>
                              <text id="_" data-name="%" transform="translate(21.119 10.778)" fill="#f6f9fb" font-size="8" font-family="Montserrat-Bold, Montserrat" font-weight="700" letter-spacing="0.036em"><tspan x="0" y="0">%</tspan></text>
                            </g>
                          </g>
                        </g>
                      </g>
                    </g>
                  </g>
                </g>
              </g>
            </g>
          </g>
        </g>
      </g>
    </g>
  </g>
</svg>
