<svg xmlns="http://www.w3.org/2000/svg" xmlns:xlink="http://www.w3.org/1999/xlink" width="160" height="160" viewBox="0 0 160 160">
  <defs>
    <clipPath id="clip-path">
      <path id="Rectangle" d="M80,0l80,80L80,160,0,80Z" fill="#e7edf3"/>
    </clipPath>
  </defs>
  <g id="dedicated_team" transform="translate(-258 -5073)">
    <g id="Edits" transform="translate(257.306 5072.291)">
      <g id="Rectangle-11" transform="translate(0.694 0.709)">
        <g id="Mask_Group_1" data-name="Mask Group 1" clip-path="url(#clip-path)">
          <path id="Rectangle-2" data-name="Rectangle" d="M80,0l80,80L80,160,0,80Z" fill="#e7edf3"/>
          <path id="Combined-Shape" d="M42.327,108.791l9.816,9.816H29.923l-9.283-9.816Z" transform="translate(0 0)" fill="#ff453b" fill-rule="evenodd" opacity="0.25"/>
          <path id="Combined-Shape-2" data-name="Combined-Shape" d="M56.327,25.791l9.816,9.816H43.923L34.64,25.791Z" transform="translate(0 0)" fill="#ff453b" fill-rule="evenodd" opacity="0.25"/>
          <path id="Combined-Shape-3" data-name="Combined-Shape" d="M126.327,38.791l9.816,9.816H113.923l-9.283-9.816Z" transform="translate(0 0)" fill="#ff453b" fill-rule="evenodd" opacity="0.25"/>
          <path id="Combined-Shape-4" data-name="Combined-Shape" d="M119.327,119.791l9.816,9.816H106.923l-9.283-9.816Z" transform="translate(0 0)" fill="#ff453b" fill-rule="evenodd" opacity="0.25"/>
        </g>
      </g>
    </g>
    <g id="help" transform="translate(267.432 5120)">
      <g id="Group_202" data-name="Group 202" transform="translate(41.568 0)">
        <path id="Path_168" data-name="Path 168" d="M99.465,112.583c-.63-11.975-11.393-16.928-11.393-16.928-2.571-1.2-7.233-3.556-10.29-5.112,3.916-4.284,5.073-11.269,5.253-12.263a47.326,47.326,0,0,0,.406-10.064c-.747-10.825-11.676-10.995-12.821-10.983H70.43c-1.038-.013-12.087.1-12.838,10.983A47.328,47.328,0,0,0,58,78.28c.053.29.192,1.1.454,2.188A13.945,13.945,0,0,0,66.3,85.144a1.817,1.817,0,0,1,1.27-.517h4.754a1.822,1.822,0,0,1,0,3.644H67.567a1.822,1.822,0,0,1-1.673-1.1,18.338,18.338,0,0,1-6.206-2.714,19.392,19.392,0,0,0,3.564,6.086c-3.057,1.556-7.716,3.909-10.29,5.111,0,0-10.761,4.954-11.393,16.928,0,0-.187,1.991,3.587,2.745a127.394,127.394,0,0,0,25.362,2.638,127.4,127.4,0,0,0,25.363-2.638C99.654,114.574,99.465,112.583,99.465,112.583Z" transform="translate(-41.568 -50.967)" fill="#ff453b"/>
        <path id="Path_170" data-name="Path 170" d="M99.465,108.581c-.145-2.754-1.935-7.476-1.935-7.476s-15.87,2.363-27.012,0S55.535,90.451,52.962,91.653c0,0-10.761,4.954-11.393,16.928,0,0-.187,1.991,3.587,2.745a127.4,127.4,0,0,0,25.362,2.638,127.4,127.4,0,0,0,25.363-2.638C99.654,110.573,99.465,108.581,99.465,108.581Z" transform="translate(-41.568 -46.965)" fill="#d2241a"/>
        <path id="Path_169" data-name="Path 169" d="M112.524,31.195h1.149V17.7c0-.034.011-.066.011-.1V15.612a11.506,11.506,0,0,1,3.258-8.556c4.472-4.4,12.11-4.34,12.239-4.322.091-.007,7.665-.116,12.157,4.281a11.53,11.53,0,0,1,3.281,8.6v2.106c0,.021.005.04.005.06V31.194h1.149a5.117,5.117,0,0,0,5.118-5.117V21.159a5.116,5.116,0,0,0-3.537-4.864v-.682a14.165,14.165,0,0,0-4.1-10.551C137.946-.13,129.472,0,129.176,0c-.356,0-8.838-.108-14.141,5.094a14.141,14.141,0,0,0-4.087,10.518v.679a5.118,5.118,0,0,0-3.541,4.867v4.918A5.118,5.118,0,0,0,112.524,31.195Z" transform="translate(-100.199 0)" fill="#ffb933"/>
      </g>
    </g>
  </g>
</svg>
