<svg xmlns="http://www.w3.org/2000/svg" xmlns:xlink="http://www.w3.org/1999/xlink" width="160" height="160" viewBox="0 0 160 160">
  <defs>
    <clipPath id="clip-path">
      <path id="Rectangle" d="M80,0l80,80L80,160,0,80Z" fill="#e7edf3"/>
    </clipPath>
  </defs>
  <g id="all_delivery_types" transform="translate(-266 -5073)">
    <g id="Edits" transform="translate(265.306 5072.291)">
      <g id="Rectangle-11" transform="translate(0.694 0.709)">
        <g id="Mask_Group_1" data-name="Mask Group 1" clip-path="url(#clip-path)">
          <path id="Rectangle-2" data-name="Rectangle" d="M80,0l80,80L80,160,0,80Z" fill="#e7edf3"/>
          <path id="Combined-Shape" d="M42.327,108.791l9.816,9.816H29.923l-9.283-9.816Z" transform="translate(0 0)" fill="#ff453b" fill-rule="evenodd" opacity="0.25"/>
          <path id="Combined-Shape-2" data-name="Combined-Shape" d="M56.327,25.791l9.816,9.816H43.923L34.64,25.791Z" transform="translate(0 0)" fill="#ff453b" fill-rule="evenodd" opacity="0.25"/>
          <path id="Combined-Shape-3" data-name="Combined-Shape" d="M126.327,38.791l9.816,9.816H113.923l-9.283-9.816Z" transform="translate(0 0)" fill="#ff453b" fill-rule="evenodd" opacity="0.25"/>
          <path id="Combined-Shape-4" data-name="Combined-Shape" d="M119.327,119.791l9.816,9.816H106.923l-9.283-9.816Z" transform="translate(0 0)" fill="#ff453b" fill-rule="evenodd" opacity="0.25"/>
        </g>
      </g>
    </g>
    <g id="Edits-2" data-name="Edits" transform="translate(281.202 5107.442)">
      <g id="Shipper---May-23---Desktop-Select" transform="translate(-656 -2843)">
        <g id="Group-24" transform="translate(200 2551)">
          <g id="Group-41">
            <g id="Group-12-Copy" transform="translate(380 273)">
              <g id="Group-39" transform="translate(100 26.709)">
                <g id="Group-45" transform="translate(0 0.633)">
                  <g id="Path-8" transform="translate(0 7.508)">
                    <path id="Path-5" d="M1.465,16.679,19.876,5.842a3,3,0,0,1,2.384-.288l22.573,6.775a3,3,0,0,0,2.478-.346L64.081,1.262a2,2,0,0,1,2.987,1.092L81.261,48.035A3,3,0,0,1,79.8,51.577L61.9,61.042a3,3,0,0,1-2.055.276L34.58,55.684a3,3,0,0,0-2.086.293L12.02,67.109A2,2,0,0,1,9.1,65.74L.043,19.845A3,3,0,0,1,1.465,16.679Z" fill="#ff453b"/>
                    <path id="Path_165" data-name="Path 165" d="M20.379,4.416,33.935,56.764,9.63,68.409-1.2,16.164Z" fill="#da2a21" fill-rule="evenodd" opacity="0.8"/>
                    <path id="Oval" d="M18.811,49.066q8.107-11.181,8.107-16.085a9.726,9.726,0,0,0-19.453,0q0,4.9,8.107,16.085h0a2,2,0,0,0,3.238,0Z" transform="matrix(0.94, -0.342, 0.342, 0.94, -11.705, 8.127)" fill="#3f0005" fill-rule="evenodd" opacity="0.25"/>
                    <path id="Path-9" d="M61.229,63.284,46.152,11.246,66.282-2.445,83.67,50.413Z" fill="#da2a21" fill-rule="evenodd" opacity="0.8"/>
                    <path id="Oval-2" data-name="Oval" d="M57.216,19Q65.323,7.821,65.323,2.917a9.726,9.726,0,0,0-19.453,0q0,4.9,8.107,16.085h0a2,2,0,0,0,3.238,0Z" transform="matrix(0.94, -0.342, 0.342, 0.94, 0.893, 19.449)" fill="#3f0005" fill-rule="evenodd" opacity="0.25"/>
                  </g>
                  <path id="Path-6" d="M21.225,55.229q7.245-7.71,19.566-5.186c12.321,2.524,18.9-1.8,16.7-6.2S40.274,40.315,39.806,33.1q-.467-7.214,19.711-7.041" fill="none" stroke="#fff" stroke-linecap="round" stroke-linejoin="round" stroke-width="1.2" fill-rule="evenodd"/>
                  <g id="Group-44" transform="translate(11.725 29.381)">
                    <path id="Oval-3" data-name="Oval" d="M11.311,25.712q8.073-11.135,8.073-16.02A9.692,9.692,0,0,0,0,9.692q0,4.885,8.073,16.02h0a2,2,0,0,0,3.238,0Z" fill="#fff" fill-rule="evenodd"/>
                    <circle id="Oval-4" data-name="Oval" cx="2.906" cy="2.906" r="2.906" transform="translate(6.786 6.975)" stroke-width="1.5" stroke="#ff933a" stroke-linecap="round" stroke-linejoin="round" fill="none"/>
                  </g>
                  <g id="Group-42" transform="translate(49.485)">
                    <g id="Group-46">
                      <path id="Oval-5" data-name="Oval" d="M11.619,26.091q8.074-11.137,8.074-16.022a9.693,9.693,0,0,0-19.386,0q0,4.886,8.074,16.022h0a2,2,0,0,0,3.238,0Z" fill="#ffc945" fill-rule="evenodd"/>
                      <path id="Oval-6" data-name="Oval" d="M10.153,13.172a3.3,3.3,0,1,0-3.3-3.3A3.3,3.3,0,0,0,10.153,13.172Z" fill="none" stroke="#fff" stroke-linecap="round" stroke-linejoin="round" stroke-width="1.5" fill-rule="evenodd"/>
                    </g>
                  </g>
                  <path id="Path-7" d="M8.018,27.819l7.69-4.148" fill="none" stroke="#fff" stroke-linecap="round" stroke-linejoin="round" stroke-width="1.5" fill-rule="evenodd"/>
                  <path id="Path-7-2" data-name="Path-7" d="M66.145,56.883l7.69-4.148" fill="none" stroke="#fff" stroke-linecap="round" stroke-linejoin="round" stroke-width="1.5" fill-rule="evenodd"/>
                </g>
              </g>
            </g>
          </g>
        </g>
      </g>
    </g>
  </g>
</svg>
