<svg xmlns="http://www.w3.org/2000/svg" width="12" height="12" viewBox="0 0 12 12">
    <defs>
        <style>
            .cls-1{fill:#2c2e53}
        </style>
    </defs>
    <g id="whatsapp_1_" data-name="whatsapp (1)">
        <g id="Group_82" data-name="Group 82">
            <path id="Path_89" d="M6 0A6 6 0 0 0 .909 9.176c-.237.83-.665 2.4-.67 2.417a.231.231 0 0 0 .291.281l2.378-.732A6 6 0 1 0 6 0zm0 11.538a5.525 5.525 0 0 1-2.938-.838.231.231 0 0 0-.123-.035.235.235 0 0 0-.068.01L.8 11.31c.153-.557.427-1.553.586-2.107a.232.232 0 0 0-.028-.189A5.539 5.539 0 1 1 6 11.538z" class="cls-1" data-name="Path 89"/>
            <path id="Path_90" d="M17.1 14.933a16.638 16.638 0 0 1-1.053-.647 5.297 5.297 0 0 0-.455-.281.524.524 0 0 0-.612.043.231.231 0 0 0-.029.035 3.244 3.244 0 0 1-.836.936A5.557 5.557 0 0 1 12.7 14.1a3.072 3.072 0 0 1-1.123-1.418c.418-.431.569-.7.569-1.01A6.531 6.531 0 0 0 11.27 9.9c-.135-.134-.438-.155-.9-.063a.233.233 0 0 0-.118.063 3.01 3.01 0 0 0-.745 3.015c.684 1.779 2.441 3.848 4.681 4.184a4.854 4.854 0 0 0 .717.057 2.124 2.124 0 0 0 2.314-1.978.23.23 0 0 0-.119-.245zm-2.847 1.7c-2.369-.355-3.861-2.7-4.319-3.893a2.54 2.54 0 0 1 .594-2.473 1.741 1.741 0 0 1 .427-.03 8.288 8.288 0 0 1 .725 1.432c0 .121-.039.29-.509.76a.23.23 0 0 0-.068.163c0 1.208 2.549 2.885 3 2.885.393 0 .9-.66 1.2-1.09a.219.219 0 0 1 .086.027c.083.042.227.136.409.255.24.157.56.366.937.582-.171.828-.65 1.661-2.478 1.387z" class="cls-1" data-name="Path 90" transform="translate(-7.184 -7.52)"/>
        </g>
    </g>
</svg>
