<svg xmlns="http://www.w3.org/2000/svg" id="linkedin" width="28" height="28" viewBox="0 0 28 28">
    <defs>
        <style>
            .cls-1{fill:#1a1a1a}.cls-2{fill:#f1f2f2}
        </style>
    </defs>
    <circle id="Ellipse_10" cx="14" cy="14" r="14" class="cls-1" data-name="Ellipse 10"/>
    <g id="Group_80" data-name="Group 80" transform="translate(4.755 4.982)">
        <path id="Path_82" d="M45.068 34.514v6.656h-3.859v-6.21c0-1.559-.557-2.624-1.954-2.624a2.111 2.111 0 0 0-1.979 1.411 2.641 2.641 0 0 0-.128.94v6.482h-3.859s.052-10.517 0-11.606h3.859v1.645l-.026.038h.026v-.038a3.832 3.832 0 0 1 3.478-1.917c2.539 0 4.442 1.659 4.442 5.223zM29.252 23.969a2.011 2.011 0 1 0-.052 4.011h.025a2.012 2.012 0 1 0 .026-4.011zM27.3 41.17h3.858V29.563H27.3z" class="cls-2" data-name="Path 82" transform="translate(-27.068 -23.969)"/>
    </g>
</svg>
