<svg xmlns="http://www.w3.org/2000/svg" width="14" height="9.953" viewBox="0 0 14 9.953">
    <defs>
        <style>
            .cls-1{fill:#2c2e53}
        </style>
    </defs>
    <g id="mail" transform="translate(0 -4.482)">
        <path id="Path_87" d="M12.871 14.435H1.129A1.13 1.13 0 0 1 0 13.306v-7.7a1.13 1.13 0 0 1 1.129-1.124h11.742A1.13 1.13 0 0 1 14 5.611v7.7a1.13 1.13 0 0 1-1.129 1.124zM1.129 4.933a.678.678 0 0 0-.677.677v7.7a.678.678 0 0 0 .677.677h11.742a.678.678 0 0 0 .677-.677v-7.7a.678.678 0 0 0-.677-.677z" class="cls-1" data-name="Path 87"/>
        <path id="Path_88" d="M7.395 11.064a1.262 1.262 0 0 1-.829-.3L.8 5.738a.226.226 0 0 1 .3-.34l5.768 5.028a.846.846 0 0 0 1.064 0L13.694 5.4a.226.226 0 0 1 .3.34l-5.77 5.025a1.26 1.26 0 0 1-.829.299z" class="cls-1" data-name="Path 88" transform="translate(-.395 -.472)"/>
    </g>
</svg>
