<svg xmlns="http://www.w3.org/2000/svg" id="instagram" width="28" height="28" viewBox="0 0 28 28">
    <defs>
        <style>
            .cls-1{fill:#1a1a1a}
        </style>
    </defs>
    <path id="Path_79" d="M34.52 23.88h-8.345a2.419 2.419 0 0 0-2.416 2.42v8.345a2.419 2.419 0 0 0 2.416 2.416h8.345a2.419 2.419 0 0 0 2.416-2.416V26.3a2.419 2.419 0 0 0-2.416-2.42zm-4.173 10.926a4.338 4.338 0 1 1 4.338-4.338 4.343 4.343 0 0 1-4.338 4.338zm4.477-7.779A1.026 1.026 0 1 1 35.851 26a1.028 1.028 0 0 1-1.026 1.028z" class="cls-1" data-name="Path 79" transform="translate(-16.347 -16.431)"/>
    <path id="Path_80" d="M39.354 36.971a2.5 2.5 0 1 0 2.5 2.5 2.508 2.508 0 0 0-2.5-2.5z" data-name="Path 80" transform="translate(-25.354 -25.438)"/>
    <path id="Path_81" d="M14 0a14 14 0 1 0 14 14A14 14 0 0 0 14 0zm8.421 18.21a4.253 4.253 0 0 1-4.249 4.249H9.827a4.253 4.253 0 0 1-4.248-4.249V9.865a4.254 4.254 0 0 1 4.248-4.249h8.345a4.253 4.253 0 0 1 4.249 4.249z" class="cls-1" data-name="Path 81"/>
</svg>
